P3
# Created by GIMP version 2.10.24 PNM plug-in
50 50
255
255
0
0
255
0
0
255
0
0
255
0
0
241
0
0
99
0
0
0
0
0
0
0
0
0
0
0
32
0
0
254
0
0
255
0
0
255
0
0
255
0
0
241
0
0
99
0
0
0
0
0
0
0
0
0
0
0
32
0
0
254
0
0
255
0
0
255
0
0
255
0
0
241
0
0
99
0
0
0
0
0
0
0
0
0
0
0
32
0
0
254
0
0
255
0
0
255
0
0
255
0
0
241
0
0
99
0
0
0
0
0
0
0
0
0
0
0
32
0
0
254
0
0
255
0
0
255
0
0
255
0
0
241
0
0
99
0
0
0
0
0
0
0
0
0
0
0
0
0
0
255
0
0
255
0
0
255
0
0
255
0
0
241
0
0
99
0
0
0
0
0
0
0
0
0
0
0
32
0
0
254
0
0
255
0
0
255
0
0
255
0
0
241
0
0
99
0
0
0
0
0
0
0
0
0
0
0
32
0
0
254
0
0
255
0
0
255
0
0
255
0
0
241
0
0
99
0
0
0
0
0
0
0
0
0
0
0
32
0
0
254
0
0
255
0
0
255
0
0
255
0
0
241
0
0
99
0
0
0
0
0
0
0
0
0
0
0
32
0
0
254
0
0
255
0
0
255
0
0
255
0
0
241
0
0
99
0
0
0
0
0
0
0
0
0
0
0
0
0
0
255
0
0
255
0
0
255
0
0
255
0
0
241
0
0
99
0
0
0
0
0
0
0
0
0
0
0
32
0
0
254
0
0
255
0
0
255
0
0
255
0
0
241
0
0
99
0
0
0
0
0
0
0
0
0
0
0
32
0
0
254
0
0
255
0
0
255
0
0
255
0
0
241
0
0
99
0
0
0
0
0
0
0
0
0
0
0
32
0
0
254
0
0
255
0
0
255
0
0
255
0
0
241
0
0
99
0
0
0
0
0
0
0
0
0
0
0
32
0
0
254
0
0
255
0
0
255
0
0
255
0
0
241
0
0
99
0
0
0
0
0
0
0
0
0
0
0
0
0
0
255
0
0
255
0
0
255
0
0
255
0
0
241
0
0
99
0
0
0
0
0
0
0
0
0
0
0
32
0
0
254
0
0
255
0
0
255
0
0
255
0
0
241
0
0
99
0
0
0
0
0
0
0
0
0
0
0
32
0
0
254
0
0
255
0
0
255
0
0
255
0
0
241
0
0
99
0
0
0
0
0
0
0
0
0
0
0
32
0
0
254
0
0
255
0
0
255
0
0
255
0
0
241
0
0
99
0
0
0
0
0
0
0
0
0
0
0
32
0
0
254
0
0
255
0
0
255
0
0
255
0
0
241
0
0
99
0
0
0
0
0
0
0
0
0
0
0
0
0
0
241
0
0
241
0
0
241
0
0
241
0
0
229
0
0
129
0
0
99
0
0
99
0
0
99
0
0
102
0
0
239
0
0
241
0
0
241
0
0
241
0
0
229
0
0
129
0
0
99
0
0
99
0
0
99
0
0
102
0
0
239
0
0
241
0
0
241
0
0
241
0
0
229
0
0
129
0
0
99
0
0
99
0
0
99
0
0
102
0
0
239
0
0
241
0
0
241
0
0
241
0
0
229
0
0
129
0
0
99
0
0
99
0
0
99
0
0
102
0
0
239
0
0
241
0
0
241
0
0
241
0
0
229
0
0
129
0
0
99
0
0
99
0
0
99
0
0
99
0
0
99
0
0
99
0
0
99
0
0
99
0
0
129
0
0
229
0
0
241
0
0
241
0
0
241
0
0
239
0
0
102
0
0
99
0
0
99
0
0
99
0
0
129
0
0
229
0
0
241
0
0
241
0
0
241
0
0
239
0
0
102
0
0
99
0
0
99
0
0
99
0
0
129
0
0
229
0
0
241
0
0
241
0
0
241
0
0
239
0
0
102
0
0
99
0
0
99
0
0
99
0
0
129
0
0
229
0
0
241
0
0
241
0
0
241
0
0
239
0
0
102
0
0
99
0
0
99
0
0
99
0
0
129
0
0
229
0
0
241
0
0
241
0
0
241
0
0
241
0
0
0
0
0
0
0
0
0
0
0
0
0
0
99
0
0
241
0
0
255
0
0
255
0
0
255
0
0
254
0
0
32
0
0
0
0
0
0
0
0
0
0
0
99
0
0
241
0
0
255
0
0
255
0
0
255
0
0
254
0
0
32
0
0
0
0
0
0
0
0
0
0
0
99
0
0
241
0
0
255
0
0
255
0
0
255
0
0
254
0
0
32
0
0
0
0
0
0
0
0
0
0
0
99
0
0
241
0
0
255
0
0
255
0
0
255
0
0
254
0
0
32
0
0
0
0
0
0
0
0
0
0
0
99
0
0
241
0
0
255
0
0
255
0
0
255
0
0
255
0
0
0
0
0
0
0
0
0
0
0
0
0
0
99
0
0
241
0
0
255
0
0
255
0
0
255
0
0
254
0
0
32
0
0
0
0
0
0
0
0
0
0
0
99
0
0
241
0
0
255
0
0
255
0
0
255
0
0
254
0
0
32
0
0
0
0
0
0
0
0
0
0
0
99
0
0
241
0
0
255
0
0
255
0
0
255
0
0
254
0
0
32
0
0
0
0
0
0
0
0
0
0
0
99
0
0
241
0
0
255
0
0
255
0
0
255
0
0
254
0
0
32
0
0
0
0
0
0
0
0
0
0
0
99
0
0
241
0
0
255
0
0
255
0
0
255
0
0
255
0
0
0
0
0
0
0
0
0
0
0
0
0
0
99
0
0
241
0
0
255
0
0
255
0
0
255
0
0
254
0
0
32
0
0
0
0
0
0
0
0
0
0
0
99
0
0
241
0
0
255
0
0
255
0
0
255
0
0
254
0
0
32
0
0
0
0
0
0
0
0
0
0
0
99
0
0
241
0
0
255
0
0
255
0
0
255
0
0
254
0
0
32
0
0
0
0
0
0
0
0
0
0
0
99
0
0
241
0
0
255
0
0
255
0
0
255
0
0
254
0
0
32
0
0
0
0
0
0
0
0
0
0
0
99
0
0
241
0
0
255
0
0
255
0
0
255
0
0
255
0
0
32
0
0
32
0
0
32
0
0
32
0
0
102
0
0
239
0
0
254
0
0
254
0
0
254
0
0
252
0
0
47
0
0
32
0
0
32
0
0
32
0
0
102
0
0
239
0
0
254
0
0
254
0
0
254
0
0
252
0
0
47
0
0
32
0
0
32
0
0
32
0
0
102
0
0
239
0
0
254
0
0
254
0
0
254
0
0
252
0
0
47
0
0
32
0
0
32
0
0
32
0
0
102
0
0
239
0
0
254
0
0
254
0
0
254
0
0
252
0
0
47
0
0
32
0
0
32
0
0
32
0
0
102
0
0
239
0
0
254
0
0
254
0
0
254
0
0
254
0
0
254
0
0
254
0
0
254
0
0
254
0
0
239
0
0
102
0
0
32
0
0
32
0
0
32
0
0
47
0
0
252
0
0
254
0
0
254
0
0
254
0
0
239
0
0
102
0
0
32
0
0
32
0
0
32
0
0
47
0
0
252
0
0
254
0
0
254
0
0
254
0
0
239
0
0
102
0
0
32
0
0
32
0
0
32
0
0
47
0
0
252
0
0
254
0
0
254
0
0
254
0
0
239
0
0
102
0
0
32
0
0
32
0
0
32
0
0
47
0
0
252
0
0
254
0
0
254
0
0
254
0
0
239
0
0
102
0
0
32
0
0
32
0
0
32
0
0
32
0
0
255
0
0
255
0
0
255
0
0
255
0
0
241
0
0
99
0
0
0
0
0
0
0
0
0
0
0
32
0
0
254
0
0
255
0
0
255
0
0
255
0
0
241
0
0
99
0
0
0
0
0
0
0
0
0
0
0
32
0
0
254
0
0
255
0
0
255
0
0
255
0
0
241
0
0
99
0
0
0
0
0
0
0
0
0
0
0
32
0
0
254
0
0
255
0
0
255
0
0
255
0
0
241
0
0
99
0
0
0
0
0
0
0
0
0
0
0
32
0
0
254
0
0
255
0
0
255
0
0
255
0
0
241
0
0
99
0
0
0
0
0
0
0
0
0
0
0
0
0
0
255
0
0
255
0
0
255
0
0
255
0
0
241
0
0
99
0
0
0
0
0
0
0
0
0
0
0
32
0
0
254
0
0
255
0
0
255
0
0
255
0
0
241
0
0
99
0
0
0
0
0
0
0
0
0
0
0
32
0
0
254
0
0
255
0
0
255
0
0
255
0
0
241
0
0
99
0
0
0
0
0
0
0
0
0
0
0
32
0
0
254
0
0
255
0
0
255
0
0
255
0
0
241
0
0
99
0
0
0
0
0
0
0
0
0
0
0
32
0
0
254
0
0
255
0
0
255
0
0
255
0
0
241
0
0
99
0
0
0
0
0
0
0
0
0
0
0
0
0
0
255
0
0
255
0
0
255
0
0
255
0
0
241
0
0
99
0
0
0
0
0
0
0
0
0
0
0
32
0
0
254
0
0
255
0
0
255
0
0
255
0
0
241
0
0
99
0
0
0
0
0
0
0
0
0
0
0
32
0
0
254
0
0
255
0
0
255
0
0
255
0
0
241
0
0
99
0
0
0
0
0
0
0
0
0
0
0
32
0
0
254
0
0
255
0
0
255
0
0
255
0
0
241
0
0
99
0
0
0
0
0
0
0
0
0
0
0
32
0
0
254
0
0
255
0
0
255
0
0
255
0
0
241
0
0
99
0
0
0
0
0
0
0
0
0
0
0
0
0
0
241
0
0
241
0
0
241
0
0
241
0
0
229
0
0
129
0
0
99
0
0
99
0
0
99
0
0
102
0
0
239
0
0
241
0
0
241
0
0
241
0
0
229
0
0
129
0
0
99
0
0
99
0
0
99
0
0
102
0
0
239
0
0
241
0
0
241
0
0
241
0
0
229
0
0
129
0
0
99
0
0
99
0
0
99
0
0
102
0
0
239
0
0
241
0
0
241
0
0
241
0
0
229
0
0
129
0
0
99
0
0
99
0
0
99
0
0
102
0
0
239
0
0
241
0
0
241
0
0
241
0
0
229
0
0
129
0
0
99
0
0
99
0
0
99
0
0
99
0
0
99
0
0
99
0
0
99
0
0
99
0
0
129
0
0
229
0
0
241
0
0
241
0
0
241
0
0
239
0
0
102
0
0
99
0
0
99
0
0
99
0
0
129
0
0
229
0
0
241
0
0
241
0
0
241
0
0
239
0
0
102
0
0
99
0
0
99
0
0
99
0
0
129
0
0
229
0
0
241
0
0
241
0
0
241
0
0
239
0
0
102
0
0
99
0
0
99
0
0
99
0
0
129
0
0
229
0
0
241
0
0
241
0
0
241
0
0
239
0
0
102
0
0
99
0
0
99
0
0
99
0
0
129
0
0
229
0
0
241
0
0
241
0
0
241
0
0
241
0
0
0
0
0
0
0
0
0
0
0
0
0
0
99
0
0
241
0
0
255
0
0
255
0
0
255
0
0
254
0
0
32
0
0
0
0
0
0
0
0
0
0
0
99
0
0
241
0
0
255
0
0
255
0
0
255
0
0
254
0
0
32
0
0
0
0
0
0
0
0
0
0
0
99
0
0
241
0
0
255
0
0
255
0
0
255
0
0
254
0
0
32
0
0
0
0
0
0
0
0
0
0
0
99
0
0
241
0
0
255
0
0
255
0
0
255
0
0
254
0
0
32
0
0
0
0
0
0
0
0
0
0
0
99
0
0
241
0
0
255
0
0
255
0
0
255
0
0
255
0
0
0
0
0
0
0
0
0
0
0
0
0
0
99
0
0
241
0
0
255
0
0
255
0
0
255
0
0
254
0
0
32
0
0
0
0
0
0
0
0
0
0
0
99
0
0
241
0
0
255
0
0
255
0
0
255
0
0
254
0
0
32
0
0
0
0
0
0
0
0
0
0
0
99
0
0
241
0
0
255
0
0
255
0
0
255
0
0
254
0
0
32
0
0
0
0
0
0
0
0
0
0
0
99
0
0
241
0
0
255
0
0
255
0
0
255
0
0
254
0
0
32
0
0
0
0
0
0
0
0
0
0
0
99
0
0
241
0
0
255
0
0
255
0
0
255
0
0
255
0
0
0
0
0
0
0
0
0
0
0
0
0
0
99
0
0
241
0
0
255
0
0
255
0
0
255
0
0
254
0
0
32
0
0
0
0
0
0
0
0
0
0
0
99
0
0
241
0
0
255
0
0
255
0
0
255
0
0
254
0
0
32
0
0
0
0
0
0
0
0
0
0
0
99
0
0
241
0
0
255
0
0
255
0
0
255
0
0
254
0
0
32
0
0
0
0
0
0
0
0
0
0
0
99
0
0
241
0
0
255
0
0
255
0
0
255
0
0
254
0
0
32
0
0
0
0
0
0
0
0
0
0
0
99
0
0
241
0
0
255
0
0
255
0
0
255
0
0
255
0
0
32
0
0
32
0
0
32
0
0
32
0
0
102
0
0
239
0
0
254
0
0
254
0
0
254
0
0
252
0
0
47
0
0
32
0
0
32
0
0
32
0
0
102
0
0
239
0
0
254
0
0
254
0
0
254
0
0
252
0
0
47
0
0
32
0
0
32
0
0
32
0
0
102
0
0
239
0
0
254
0
0
254
0
0
254
0
0
252
0
0
47
0
0
32
0
0
32
0
0
32
0
0
102
0
0
239
0
0
254
0
0
254
0
0
254
0
0
252
0
0
47
0
0
32
0
0
32
0
0
32
0
0
102
0
0
239
0
0
254
0
0
254
0
0
254
0
0
254
0
0
254
0
0
254
0
0
254
0
0
254
0
0
239
0
0
102
0
0
32
0
0
32
0
0
32
0
0
47
0
0
252
0
0
254
0
0
254
0
0
254
0
0
239
0
0
102
0
0
32
0
0
32
0
0
32
0
0
47
0
0
252
0
0
254
0
0
254
0
0
254
0
0
239
0
0
102
0
0
32
0
0
32
0
0
32
0
0
47
0
0
252
0
0
254
0
0
254
0
0
254
0
0
239
0
0
102
0
0
32
0
0
32
0
0
32
0
0
47
0
0
252
0
0
254
0
0
254
0
0
254
0
0
239
0
0
102
0
0
32
0
0
32
0
0
32
0
0
32
0
0
255
0
0
255
0
0
255
0
0
255
0
0
241
0
0
99
0
0
0
0
0
0
0
0
0
0
0
32
0
0
254
0
0
255
0
0
255
0
0
255
0
0
241
0
0
99
0
0
0
0
0
0
0
0
0
0
0
32
0
0
254
0
0
255
0
0
255
0
0
255
0
0
241
0
0
99
0
0
0
0
0
0
0
0
0
0
0
32
0
0
254
0
0
255
0
0
255
0
0
255
0
0
241
0
0
99
0
0
0
0
0
0
0
0
0
0
0
32
0
0
254
0
0
255
0
0
255
0
0
255
0
0
241
0
0
99
0
0
0
0
0
0
0
0
0
0
0
0
0
0
255
0
0
255
0
0
255
0
0
255
0
0
241
0
0
99
0
0
0
0
0
0
0
0
0
0
0
32
0
0
254
0
0
255
0
0
255
0
0
255
0
0
241
0
0
99
0
0
0
0
0
0
0
0
0
0
0
32
0
0
254
0
0
255
0
0
255
0
0
255
0
0
241
0
0
99
0
0
0
0
0
0
0
0
0
0
0
32
0
0
254
0
0
255
0
0
255
0
0
255
0
0
241
0
0
99
0
0
0
0
0
0
0
0
0
0
0
32
0
0
254
0
0
255
0
0
255
0
0
255
0
0
241
0
0
99
0
0
0
0
0
0
0
0
0
0
0
0
0
0
255
0
0
255
0
0
255
0
0
255
0
0
241
0
0
99
0
0
0
0
0
0
0
0
0
0
0
32
0
0
254
0
0
255
0
0
255
0
0
255
0
0
241
0
0
99
0
0
0
0
0
0
0
0
0
0
0
32
0
0
254
0
0
255
0
0
255
0
0
255
0
0
241
0
0
99
0
0
0
0
0
0
0
0
0
0
0
32
0
0
254
0
0
255
0
0
255
0
0
255
0
0
241
0
0
99
0
0
0
0
0
0
0
0
0
0
0
32
0
0
254
0
0
255
0
0
255
0
0
255
0
0
241
0
0
99
0
0
0
0
0
0
0
0
0
0
0
0
0
0
241
0
0
241
0
0
241
0
0
241
0
0
229
0
0
129
0
0
99
0
0
99
0
0
99
0
0
102
0
0
239
0
0
241
0
0
241
0
0
241
0
0
229
0
0
129
0
0
99
0
0
99
0
0
99
0
0
102
0
0
239
0
0
241
0
0
241
0
0
241
0
0
229
0
0
129
0
0
99
0
0
99
0
0
99
0
0
102
0
0
239
0
0
241
0
0
241
0
0
241
0
0
229
0
0
129
0
0
99
0
0
99
0
0
99
0
0
102
0
0
239
0
0
241
0
0
241
0
0
241
0
0
229
0
0
129
0
0
99
0
0
99
0
0
99
0
0
99
0
0
99
0
0
99
0
0
99
0
0
99
0
0
129
0
0
229
0
0
241
0
0
241
0
0
241
0
0
239
0
0
102
0
0
99
0
0
99
0
0
99
0
0
129
0
0
229
0
0
241
0
0
241
0
0
241
0
0
239
0
0
102
0
0
99
0
0
99
0
0
99
0
0
129
0
0
229
0
0
241
0
0
241
0
0
241
0
0
239
0
0
102
0
0
99
0
0
99
0
0
99
0
0
129
0
0
229
0
0
241
0
0
241
0
0
241
0
0
239
0
0
102
0
0
99
0
0
99
0
0
99
0
0
129
0
0
229
0
0
241
0
0
241
0
0
241
0
0
241
0
0
0
0
0
0
0
0
0
0
0
0
0
0
99
0
0
241
0
0
255
0
0
255
0
0
255
0
0
254
0
0
32
0
0
0
0
0
0
0
0
0
0
0
99
0
0
241
0
0
255
0
0
255
0
0
255
0
0
254
0
0
32
0
0
0
0
0
0
0
0
0
0
0
99
0
0
241
0
0
255
0
0
255
0
0
255
0
0
254
0
0
32
0
0
0
0
0
0
0
0
0
0
0
99
0
0
241
0
0
255
0
0
255
0
0
255
0
0
254
0
0
32
0
0
0
0
0
0
0
0
0
0
0
99
0
0
241
0
0
255
0
0
255
0
0
255
0
0
255
0
0
0
0
0
0
0
0
0
0
0
0
0
0
99
0
0
241
0
0
255
0
0
255
0
0
255
0
0
254
0
0
32
0
0
0
0
0
0
0
0
0
0
0
99
0
0
241
0
0
255
0
0
255
0
0
255
0
0
254
0
0
32
0
0
0
0
0
0
0
0
0
0
0
99
0
0
241
0
0
255
0
0
255
0
0
255
0
0
254
0
0
32
0
0
0
0
0
0
0
0
0
0
0
99
0
0
241
0
0
255
0
0
255
0
0
255
0
0
254
0
0
32
0
0
0
0
0
0
0
0
0
0
0
99
0
0
241
0
0
255
0
0
255
0
0
255
0
0
255
0
0
0
0
0
0
0
0
0
0
0
0
0
0
99
0
0
241
0
0
255
0
0
255
0
0
255
0
0
254
0
0
32
0
0
0
0
0
0
0
0
0
0
0
99
0
0
241
0
0
255
0
0
255
0
0
255
0
0
254
0
0
32
0
0
0
0
0
0
0
0
0
0
0
99
0
0
241
0
0
255
0
0
255
0
0
255
0
0
254
0
0
32
0
0
0
0
0
0
0
0
0
0
0
99
0
0
241
0
0
255
0
0
255
0
0
255
0
0
254
0
0
32
0
0
0
0
0
0
0
0
0
0
0
99
0
0
241
0
0
255
0
0
255
0
0
255
0
0
255
0
0
32
0
0
32
0
0
32
0
0
32
0
0
102
0
0
239
0
0
254
0
0
254
0
0
254
0
0
252
0
0
47
0
0
32
0
0
32
0
0
32
0
0
102
0
0
239
0
0
254
0
0
254
0
0
254
0
0
252
0
0
47
0
0
32
0
0
32
0
0
32
0
0
102
0
0
239
0
0
254
0
0
254
0
0
254
0
0
252
0
0
47
0
0
32
0
0
32
0
0
32
0
0
102
0
0
239
0
0
254
0
0
254
0
0
254
0
0
252
0
0
47
0
0
32
0
0
32
0
0
32
0
0
102
0
0
239
0
0
254
0
0
254
0
0
254
0
0
254
0
0
254
0
0
254
0
0
254
0
0
254
0
0
239
0
0
102
0
0
32
0
0
32
0
0
32
0
0
47
0
0
252
0
0
254
0
0
254
0
0
254
0
0
239
0
0
102
0
0
32
0
0
32
0
0
32
0
0
47
0
0
252
0
0
254
0
0
254
0
0
254
0
0
239
0
0
102
0
0
32
0
0
32
0
0
32
0
0
47
0
0
252
0
0
254
0
0
254
0
0
254
0
0
239
0
0
102
0
0
32
0
0
32
0
0
32
0
0
47
0
0
252
0
0
254
0
0
254
0
0
254
0
0
239
0
0
102
0
0
32
0
0
32
0
0
32
0
0
32
0
0
255
0
0
255
0
0
255
0
0
255
0
0
241
0
0
99
0
0
0
0
0
0
0
0
0
0
0
32
0
0
254
0
0
255
0
0
255
0
0
255
0
0
241
0
0
99
0
0
0
0
0
0
0
0
0
0
0
32
0
0
254
0
0
255
0
0
255
0
0
255
0
0
241
0
0
99
0
0
0
0
0
0
0
0
0
0
0
32
0
0
254
0
0
255
0
0
255
0
0
255
0
0
241
0
0
99
0
0
0
0
0
0
0
0
0
0
0
32
0
0
254
0
0
255
0
0
255
0
0
255
0
0
241
0
0
99
0
0
0
0
0
0
0
0
0
0
0
0
0
0
255
0
0
255
0
0
255
0
0
255
0
0
241
0
0
99
0
0
0
0
0
0
0
0
0
0
0
32
0
0
254
0
0
255
0
0
255
0
0
255
0
0
241
0
0
99
0
0
0
0
0
0
0
0
0
0
0
32
0
0
254
0
0
255
0
0
255
0
0
255
0
0
241
0
0
99
0
0
0
0
0
0
0
0
0
0
0
32
0
0
254
0
0
255
0
0
255
0
0
255
0
0
241
0
0
99
0
0
0
0
0
0
0
0
0
0
0
32
0
0
254
0
0
255
0
0
255
0
0
255
0
0
241
0
0
99
0
0
0
0
0
0
0
0
0
0
0
0
0
0
255
0
0
255
0
0
255
0
0
255
0
0
241
0
0
99
0
0
0
0
0
0
0
0
0
0
0
32
0
0
254
0
0
255
0
0
255
0
0
255
0
0
241
0
0
99
0
0
0
0
0
0
0
0
0
0
0
32
0
0
254
0
0
255
0
0
255
0
0
255
0
0
241
0
0
99
0
0
0
0
0
0
0
0
0
0
0
32
0
0
254
0
0
255
0
0
255
0
0
255
0
0
241
0
0
99
0
0
0
0
0
0
0
0
0
0
0
32
0
0
254
0
0
255
0
0
255
0
0
255
0
0
241
0
0
99
0
0
0
0
0
0
0
0
0
0
0
0
0
0
241
0
0
241
0
0
241
0
0
241
0
0
229
0
0
129
0
0
99
0
0
99
0
0
99
0
0
102
0
0
239
0
0
241
0
0
241
0
0
241
0
0
229
0
0
129
0
0
99
0
0
99
0
0
99
0
0
102
0
0
239
0
0
241
0
0
241
0
0
241
0
0
229
0
0
129
0
0
99
0
0
99
0
0
99
0
0
102
0
0
239
0
0
241
0
0
241
0
0
241
0
0
229
0
0
129
0
0
99
0
0
99
0
0
99
0
0
102
0
0
239
0
0
241
0
0
241
0
0
241
0
0
229
0
0
129
0
0
99
0
0
99
0
0
99
0
0
99
0
0
99
0
0
99
0
0
99
0
0
99
0
0
129
0
0
229
0
0
241
0
0
241
0
0
241
0
0
239
0
0
102
0
0
99
0
0
99
0
0
99
0
0
129
0
0
229
0
0
241
0
0
241
0
0
241
0
0
239
0
0
102
0
0
99
0
0
99
0
0
99
0
0
129
0
0
229
0
0
241
0
0
241
0
0
241
0
0
239
0
0
102
0
0
99
0
0
99
0
0
99
0
0
129
0
0
229
0
0
241
0
0
241
0
0
241
0
0
239
0
0
102
0
0
99
0
0
99
0
0
99
0
0
129
0
0
229
0
0
241
0
0
241
0
0
241
0
0
241
0
0
0
0
0
0
0
0
0
0
0
0
0
0
99
0
0
241
0
0
255
0
0
255
0
0
255
0
0
254
0
0
32
0
0
0
0
0
0
0
0
0
0
0
99
0
0
241
0
0
255
0
0
255
0
0
255
0
0
254
0
0
32
0
0
0
0
0
0
0
0
0
0
0
99
0
0
241
0
0
255
0
0
255
0
0
255
0
0
254
0
0
32
0
0
0
0
0
0
0
0
0
0
0
99
0
0
241
0
0
255
0
0
255
0
0
255
0
0
254
0
0
32
0
0
0
0
0
0
0
0
0
0
0
99
0
0
241
0
0
255
0
0
255
0
0
255
0
0
255
0
0
0
0
0
0
0
0
0
0
0
0
0
0
99
0
0
241
0
0
255
0
0
255
0
0
255
0
0
254
0
0
32
0
0
0
0
0
0
0
0
0
0
0
99
0
0
241
0
0
255
0
0
255
0
0
255
0
0
254
0
0
32
0
0
0
0
0
0
0
0
0
0
0
99
0
0
241
0
0
255
0
0
255
0
0
255
0
0
254
0
0
32
0
0
0
0
0
0
0
0
0
0
0
99
0
0
241
0
0
255
0
0
255
0
0
255
0
0
254
0
0
32
0
0
0
0
0
0
0
0
0
0
0
99
0
0
241
0
0
255
0
0
255
0
0
255
0
0
255
0
0
0
0
0
0
0
0
0
0
0
0
0
0
99
0
0
241
0
0
255
0
0
255
0
0
255
0
0
254
0
0
32
0
0
0
0
0
0
0
0
0
0
0
99
0
0
241
0
0
255
0
0
255
0
0
255
0
0
254
0
0
32
0
0
0
0
0
0
0
0
0
0
0
99
0
0
241
0
0
255
0
0
255
0
0
255
0
0
254
0
0
32
0
0
0
0
0
0
0
0
0
0
0
99
0
0
241
0
0
255
0
0
255
0
0
255
0
0
254
0
0
32
0
0
0
0
0
0
0
0
0
0
0
99
0
0
241
0
0
255
0
0
255
0
0
255
0
0
255
0
0
32
0
0
32
0
0
32
0
0
32
0
0
102
0
0
239
0
0
254
0
0
254
0
0
254
0
0
252
0
0
47
0
0
32
0
0
32
0
0
32
0
0
102
0
0
239
0
0
254
0
0
254
0
0
254
0
0
252
0
0
47
0
0
32
0
0
32
0
0
32
0
0
102
0
0
239
0
0
254
0
0
254
0
0
254
0
0
252
0
0
47
0
0
32
0
0
32
0
0
32
0
0
102
0
0
239
0
0
254
0
0
254
0
0
254
0
0
252
0
0
47
0
0
32
0
0
32
0
0
32
0
0
102
0
0
239
0
0
254
0
0
254
0
0
254
0
0
254
0
0
254
0
0
254
0
0
254
0
0
254
0
0
239
0
0
102
0
0
32
0
0
32
0
0
32
0
0
47
0
0
252
0
0
254
0
0
254
0
0
254
0
0
239
0
0
102
0
0
32
0
0
32
0
0
32
0
0
47
0
0
252
0
0
254
0
0
254
0
0
254
0
0
239
0
0
102
0
0
32
0
0
32
0
0
32
0
0
47
0
0
252
0
0
254
0
0
254
0
0
254
0
0
239
0
0
102
0
0
32
0
0
32
0
0
32
0
0
47
0
0
252
0
0
254
0
0
254
0
0
254
0
0
239
0
0
102
0
0
32
0
0
32
0
0
32
0
0
32
0
0
255
0
0
255
0
0
255
0
0
255
0
0
241
0
0
99
0
0
0
0
0
0
0
0
0
0
0
32
0
0
254
0
0
255
0
0
255
0
0
255
0
0
241
0
0
99
0
0
0
0
0
0
0
0
0
0
0
32
0
0
254
0
0
255
0
0
255
0
0
255
0
0
241
0
0
99
0
0
0
0
0
0
0
0
0
0
0
32
0
0
254
0
0
255
0
0
255
0
0
255
0
0
241
0
0
99
0
0
0
0
0
0
0
0
0
0
0
32
0
0
254
0
0
255
0
0
255
0
0
255
0
0
241
0
0
99
0
0
0
0
0
0
0
0
0
0
0
0
0
0
255
0
0
255
0
0
255
0
0
255
0
0
241
0
0
99
0
0
0
0
0
0
0
0
0
0
0
32
0
0
254
0
0
255
0
0
255
0
0
255
0
0
241
0
0
99
0
0
0
0
0
0
0
0
0
0
0
32
0
0
254
0
0
255
0
0
255
0
0
255
0
0
241
0
0
99
0
0
0
0
0
0
0
0
0
0
0
32
0
0
254
0
0
255
0
0
255
0
0
255
0
0
241
0
0
99
0
0
0
0
0
0
0
0
0
0
0
32
0
0
254
0
0
255
0
0
255
0
0
255
0
0
241
0
0
99
0
0
0
0
0
0
0
0
0
0
0
0
0
0
255
0
0
255
0
0
255
0
0
255
0
0
241
0
0
99
0
0
0
0
0
0
0
0
0
0
0
32
0
0
254
0
0
255
0
0
255
0
0
255
0
0
241
0
0
99
0
0
0
0
0
0
0
0
0
0
0
32
0
0
254
0
0
255
0
0
255
0
0
255
0
0
241
0
0
99
0
0
0
0
0
0
0
0
0
0
0
32
0
0
254
0
0
255
0
0
255
0
0
255
0
0
241
0
0
99
0
0
0
0
0
0
0
0
0
0
0
32
0
0
254
0
0
255
0
0
255
0
0
255
0
0
241
0
0
99
0
0
0
0
0
0
0
0
0
0
0
0
0
0
241
0
0
241
0
0
241
0
0
241
0
0
229
0
0
129
0
0
99
0
0
99
0
0
99
0
0
102
0
0
239
0
0
241
0
0
241
0
0
241
0
0
229
0
0
129
0
0
99
0
0
99
0
0
99
0
0
102
0
0
239
0
0
241
0
0
241
0
0
241
0
0
229
0
0
129
0
0
99
0
0
99
0
0
99
0
0
102
0
0
239
0
0
241
0
0
241
0
0
241
0
0
229
0
0
129
0
0
99
0
0
99
0
0
99
0
0
102
0
0
239
0
0
241
0
0
241
0
0
241
0
0
229
0
0
129
0
0
99
0
0
99
0
0
99
0
0
99
0
0
99
0
0
99
0
0
99
0
0
99
0
0
129
0
0
229
0
0
241
0
0
241
0
0
241
0
0
239
0
0
102
0
0
99
0
0
99
0
0
99
0
0
129
0
0
229
0
0
241
0
0
241
0
0
241
0
0
239
0
0
102
0
0
99
0
0
99
0
0
99
0
0
129
0
0
229
0
0
241
0
0
241
0
0
241
0
0
239
0
0
102
0
0
99
0
0
99
0
0
99
0
0
129
0
0
229
0
0
241
0
0
241
0
0
241
0
0
239
0
0
102
0
0
99
0
0
99
0
0
99
0
0
129
0
0
229
0
0
241
0
0
241
0
0
241
0
0
241
0
0
0
0
0
0
0
0
0
0
0
0
0
0
99
0
0
241
0
0
255
0
0
255
0
0
255
0
0
254
0
0
32
0
0
0
0
0
0
0
0
0
0
0
99
0
0
241
0
0
255
0
0
255
0
0
255
0
0
254
0
0
32
0
0
0
0
0
0
0
0
0
0
0
99
0
0
241
0
0
255
0
0
255
0
0
255
0
0
254
0
0
32
0
0
0
0
0
0
0
0
0
0
0
99
0
0
241
0
0
255
0
0
255
0
0
255
0
0
254
0
0
32
0
0
0
0
0
0
0
0
0
0
0
99
0
0
241
0
0
255
0
0
255
0
0
255
0
0
255
0
0
0
0
0
0
0
0
0
0
0
0
0
0
99
0
0
241
0
0
255
0
0
255
0
0
255
0
0
254
0
0
32
0
0
0
0
0
0
0
0
0
0
0
99
0
0
241
0
0
255
0
0
255
0
0
255
0
0
254
0
0
32
0
0
0
0
0
0
0
0
0
0
0
99
0
0
241
0
0
255
0
0
255
0
0
255
0
0
254
0
0
32
0
0
0
0
0
0
0
0
0
0
0
99
0
0
241
0
0
255
0
0
255
0
0
255
0
0
254
0
0
32
0
0
0
0
0
0
0
0
0
0
0
99
0
0
241
0
0
255
0
0
255
0
0
255
0
0
255
0
0
0
0
0
0
0
0
0
0
0
0
0
0
99
0
0
241
0
0
255
0
0
255
0
0
255
0
0
254
0
0
32
0
0
0
0
0
0
0
0
0
0
0
99
0
0
241
0
0
255
0
0
255
0
0
255
0
0
254
0
0
32
0
0
0
0
0
0
0
0
0
0
0
99
0
0
241
0
0
255
0
0
255
0
0
255
0
0
254
0
0
32
0
0
0
0
0
0
0
0
0
0
0
99
0
0
241
0
0
255
0
0
255
0
0
255
0
0
254
0
0
32
0
0
0
0
0
0
0
0
0
0
0
99
0
0
241
0
0
255
0
0
255
0
0
255
0
0
255
0
0
0
0
0
0
0
0
0
0
0
0
0
0
99
0
0
241
0
0
255
0
0
255
0
0
255
0
0
254
0
0
32
0
0
0
0
0
0
0
0
0
0
0
99
0
0
241
0
0
255
0
0
255
0
0
255
0
0
254
0
0
32
0
0
0
0
0
0
0
0
0
0
0
99
0
0
241
0
0
255
0
0
255
0
0
255
0
0
254
0
0
32
0
0
0
0
0
0
0
0
0
0
0
99
0
0
241
0
0
255
0
0
255
0
0
255
0
0
254
0
0
32
0
0
0
0
0
0
0
0
0
0
0
99
0
0
241
0
0
255
0
0
255
0
0
255
0
0
255
0
0
